<svg width="33" height="28" viewBox="0 0 33 28" fill="none" xmlns="http://www.w3.org/2000/svg">
<path d="M9.80565 0.404966C10.4437 0.978546 10.4952 1.9517 9.92165 2.58973L5.28145 7.74551C4.99788 8.0613 4.59831 8.24819 4.17296 8.25464C3.74761 8.26108 3.34159 8.09996 3.03869 7.80351L0.454353 5.22562C-0.145006 4.61981 -0.145006 3.64022 0.454353 3.03441C1.05371 2.42861 2.03975 2.42861 2.63911 3.03441L4.0634 4.4587L7.61444 0.514526C8.18802 -0.123501 9.16117 -0.175059 9.7992 0.398521L9.80565 0.404966ZM9.80565 10.7165C10.4437 11.2901 10.4952 12.2633 9.92165 12.9013L5.28145 18.0571C4.99788 18.3729 4.59831 18.5597 4.17296 18.5662C3.74761 18.5726 3.34159 18.4115 3.03869 18.1151L0.454353 15.5372C-0.151451 14.9314 -0.151451 13.9518 0.454353 13.3524C1.06016 12.7531 2.03975 12.7466 2.63911 13.3524L4.0634 14.7767L7.61444 10.8325C8.18802 10.1945 9.16117 10.1429 9.7992 10.7165H9.80565ZM14.4394 4.13002C14.4394 2.9893 15.361 2.0677 16.5017 2.0677H30.9379C32.0786 2.0677 33.0002 2.9893 33.0002 4.13002C33.0002 5.27073 32.0786 6.19233 30.9379 6.19233H16.5017C15.361 6.19233 14.4394 5.27073 14.4394 4.13002ZM14.4394 14.4416C14.4394 13.3009 15.361 12.3793 16.5017 12.3793H30.9379C32.0786 12.3793 33.0002 13.3009 33.0002 14.4416C33.0002 15.5823 32.0786 16.5039 30.9379 16.5039H16.5017C15.361 16.5039 14.4394 15.5823 14.4394 14.4416ZM10.3148 24.7531C10.3148 23.6124 11.2364 22.6908 12.3771 22.6908H30.9379C32.0786 22.6908 33.0002 23.6124 33.0002 24.7531C33.0002 25.8938 32.0786 26.8154 30.9379 26.8154H12.3771C11.2364 26.8154 10.3148 25.8938 10.3148 24.7531ZM3.09669 21.6597C3.91713 21.6597 4.70396 21.9856 5.2841 22.5657C5.86424 23.1459 6.19016 23.9327 6.19016 24.7531C6.19016 25.5736 5.86424 26.3604 5.2841 26.9405C4.70396 27.5207 3.91713 27.8466 3.09669 27.8466C2.27625 27.8466 1.48942 27.5207 0.909278 26.9405C0.32914 26.3604 0.00322234 25.5736 0.00322234 24.7531C0.00322234 23.9327 0.32914 23.1459 0.909278 22.5657C1.48942 21.9856 2.27625 21.6597 3.09669 21.6597Z" fill="black"/>
</svg>
