<svg width="43" height="35" viewBox="0 0 43 35" fill="none" xmlns="http://www.w3.org/2000/svg">
<path fill-rule="evenodd" clip-rule="evenodd" d="M40.6259 7.69559L40.6333 7.59278C40.9343 4.91989 41.2354 2.32777 42.6233 0C43.1006 0.323097 43.0418 0.734313 42.895 1.11615C41.4337 4.87583 41.5732 8.78237 41.7054 12.6889L41.7347 13.7169C41.8889 18.5928 40.67 23.028 37.4243 26.751C36.2935 28.0434 34.7955 28.9392 33.2755 29.7103C31.704 30.518 31.3736 31.1862 31.8656 32.9119L31.9243 33.1028C32.0271 33.3892 32.1299 33.6829 31.8509 33.9693C31.5205 34.307 31.1533 34.2116 30.7641 34.1014L30.7201 34.0941C27.0793 33.0747 23.6654 31.3727 20.66 29.0787C20.2194 28.7557 19.8669 28.3224 19.5218 27.8965L19.4998 27.8671C19.3162 27.6468 19.2795 27.2944 19.5365 27.1034C19.7788 26.9199 19.9624 27.0667 20.1753 27.2356L20.2488 27.3017C21.8522 28.6027 23.7983 29.4113 25.8516 29.6295C26.8356 29.7323 27.8048 29.6956 28.7888 29.6589C29.3322 29.6368 29.8756 29.6148 30.4263 29.6221C31.1753 29.6221 31.7995 29.277 32.387 28.9466L32.5926 28.8291C34.6339 27.6909 36.5799 26.4205 37.8943 24.3718C39.0765 22.536 39.7962 20.5387 40.2147 18.4312C40.7434 15.7804 40.6994 13.0928 40.6553 10.3685C40.6333 9.48731 40.6186 8.59145 40.6186 7.69559H40.6259ZM3.66067 2.15888C5.26882 2.03404 6.15733 2.98131 6.91367 4.09012C7.81009 5.44485 8.37369 6.99223 8.55853 8.60614C8.59525 8.87783 8.63196 9.16421 8.47042 9.43591C8.13998 9.47997 8.1106 9.21561 8.10326 9.02469C8.06654 7.50467 7.39098 6.18291 6.71541 4.9052C6.23076 3.98731 5.52583 3.0988 4.40967 2.8785C3.14665 2.62149 1.98644 3.75968 1.41368 5.24299C0.348927 8.004 0.532505 10.721 1.51648 13.3938C1.94238 14.5614 2.47843 15.751 3.55787 16.5661C4.64465 17.3958 5.95907 17.249 6.75947 16.1475L6.90633 15.9639C7.05319 15.773 7.20006 15.5894 7.27349 15.3765C7.42769 14.9506 7.67002 14.5541 8.10326 14.6128C8.60259 14.6862 8.69071 15.2223 8.74211 15.6408C9.19764 19.4876 9.73626 23.324 10.3576 27.1475L10.7908 29.9966C10.9818 31.2523 11.2021 33.0587 11.0552 33.8224C11.0457 33.8759 11.0384 33.9298 11.0332 33.984C11.0038 34.1896 10.9891 34.3511 10.7248 34.3878C10.3649 34.4466 10.2107 34.241 10.1593 33.9179C9.99044 32.6695 9.93904 32.1849 9.86561 30.2757C9.79952 28.4252 9.45439 26.6041 9.10192 24.7757L8.73477 22.793C8.35293 20.5314 7.97843 18.2403 7.94171 15.6702L7.79485 15.8905C7.23677 16.7203 6.78884 17.3958 5.99578 17.6529C5.40709 17.8784 4.76194 17.9111 4.15348 17.7461C3.54502 17.5811 3.00473 17.227 2.61061 16.735C1.57587 15.5663 0.848992 14.158 0.495789 12.6375C-0.121033 10.1408 -0.231179 7.71027 0.561877 5.25033C0.94372 4.06809 2.3022 1.96796 3.66067 2.16622V2.15888ZM6.20139 11.5214C6.52449 11.7563 6.81821 11.9619 7.08257 11.1248C7.00179 8.02603 6.00313 6.04339 4.45373 5.96261C5.27616 7.03471 6.06922 8.07743 6.14265 9.52402C5.83709 9.36799 5.56902 9.14752 5.35693 8.87783C5.21007 8.71628 5.06321 8.55473 4.87963 8.43724L4.65934 8.26101C4.30687 7.99666 3.94705 7.71762 3.35226 7.93057C3.6313 8.35647 4.01314 8.66488 4.40233 8.9586C4.84292 9.30373 5.2835 9.64151 5.54785 10.1702C4.76948 10.7356 4.4317 11.4699 4.83557 12.3658C5.18804 13.1368 5.7094 13.7757 6.73744 13.8197C6.69338 13.3571 6.39231 13.0193 6.09124 12.6889C5.72409 12.2924 5.37896 11.9105 5.54051 11.3231C5.77549 11.2129 5.99578 11.3745 6.20139 11.5214Z" fill="black"/>
</svg>
