<svg width="36" height="24" viewBox="0 0 36 24" fill="none" xmlns="http://www.w3.org/2000/svg">
<path d="M0 4C0 1.79375 1.79375 0 4 0H20C22.2062 0 24 1.79375 24 4V20C24 22.2062 22.2062 24 20 24H4C1.79375 24 0 22.2062 0 20V4ZM34.9437 2.2375C35.5938 2.5875 36 3.2625 36 4V20C36 20.7375 35.5938 21.4125 34.9437 21.7625C34.2937 22.1125 33.5063 22.075 32.8875 21.6625L26.8875 17.6625L26 17.0688V16V8V6.93125L26.8875 6.3375L32.8875 2.3375C33.5 1.93125 34.2875 1.8875 34.9437 2.2375Z" fill="black"/>
</svg>
