<svg width="61" height="43" viewBox="0 0 61 43" fill="none" xmlns="http://www.w3.org/2000/svg">
<path d="M30.5007 0C29.7287 0 28.9662 0.133434 28.2419 0.390772L1.50737 10.0457C0.601921 10.3793 0.00146704 11.2371 0.00146704 12.1997C0.00146704 13.1623 0.601921 14.0201 1.50737 14.3537L7.02583 16.3457C5.46274 18.8047 4.57636 21.7117 4.57636 24.7711V27.4493C4.57636 30.1561 3.54701 32.9487 2.45094 35.1504C1.83142 36.3894 1.12613 37.6094 0.30646 38.7341C0.00146704 39.1439 -0.0843121 39.6776 0.0872462 40.1637C0.258804 40.6498 0.659107 41.012 1.15472 41.1359L7.25457 42.6608C7.65487 42.7657 8.08377 42.6894 8.43642 42.4702C8.78907 42.251 9.03687 41.8888 9.11312 41.479C9.93279 37.3997 9.52295 33.7398 8.91297 31.1188C8.60798 29.7654 8.19814 28.3834 7.62628 27.1157V24.7711C7.62628 21.8927 8.59844 19.1764 10.2854 17.0033C11.5149 15.526 13.1066 14.3346 14.9747 13.6008L29.9384 7.72012C30.7199 7.41513 31.6063 7.79637 31.9113 8.57792C32.2163 9.35946 31.8351 10.2458 31.0535 10.5508L16.0898 16.4315C14.908 16.8985 13.8691 17.6133 13.0208 18.4902L28.2323 23.98C28.9567 24.2374 29.7192 24.3708 30.4912 24.3708C31.2632 24.3708 32.0257 24.2374 32.75 23.98L59.4941 14.3537C60.3995 14.0297 61 13.1623 61 12.1997C61 11.2371 60.3995 10.3793 59.4941 10.0457L32.7596 0.390772C32.0352 0.133434 31.2727 0 30.5007 0ZM12.2012 35.8366C12.2012 39.2011 20.3978 42.699 30.5007 42.699C40.6036 42.699 48.8003 39.2011 48.8003 35.8366L47.342 21.9785L33.7889 26.8775C32.731 27.2587 31.6158 27.4493 30.5007 27.4493C29.3856 27.4493 28.2609 27.2587 27.2125 26.8775L13.6594 21.9785L12.2012 35.8366Z" fill="black"/>
</svg>
