<svg width="32" height="36" viewBox="0 0 32 36" fill="none" xmlns="http://www.w3.org/2000/svg">
<path d="M15.7484 0C14.5039 0 13.4984 1.00547 13.4984 2.25V3.50859C8.40077 4.31719 4.49843 8.73281 4.49843 14.0625V16.4109C4.49843 19.6031 3.40858 22.7039 1.41874 25.193L0.371084 26.5078C-0.0367285 27.0141 -0.114072 27.7102 0.167178 28.2937C0.448428 28.8773 1.03905 29.25 1.68593 29.25H29.8109C30.4578 29.25 31.0484 28.8773 31.3297 28.2937C31.6109 27.7102 31.5336 27.0141 31.1258 26.5078L30.0781 25.2C28.0883 22.7039 26.9984 19.6031 26.9984 16.4109V14.0625C26.9984 8.73281 23.0961 4.31719 17.9984 3.50859V2.25C17.9984 1.00547 16.993 0 15.7484 0ZM15.7484 6.75H16.3109C20.3469 6.75 23.6234 10.0266 23.6234 14.0625V16.4109C23.6234 19.7789 24.6008 23.0625 26.4148 25.875H5.08202C6.89608 23.0625 7.87343 19.7789 7.87343 16.4109V14.0625C7.87343 10.0266 11.15 6.75 15.1859 6.75H15.7484ZM20.2484 31.5H15.7484H11.2484C11.2484 32.6953 11.7195 33.8414 12.5633 34.6852C13.407 35.5289 14.5531 36 15.7484 36C16.9437 36 18.0898 35.5289 18.9336 34.6852C19.7773 33.8414 20.2484 32.6953 20.2484 31.5Z" fill="black"/>
</svg>
